<?xml version="1.0" standalone="no"?>
<!DOCTYPE svg PUBLIC "-//W3C//DTD SVG 20010904//EN"
 "http://www.w3.org/TR/2001/REC-SVG-20010904/DTD/svg10.dtd">
<svg version="1" xmlns="http://www.w3.org/2000/svg"
 width="30pt" height="30pt" viewBox="0 0 512 512"
 preserveAspectRatio="xMidYMid meet">

<g transform="matrix(0.1,0,0,-0.1,0,512)"
fill="white" stroke="none">
<path transform="matrix(1,0,0,1,86,283)" d="M 2830.8 5655.7 c -58 -16 -95 -67 -95 -130 c 0 -41 13 -63 77 -132 c 66 -72 122 -154 153 -227 c 19 -42 24 -72 24 -125 c -2 -125 -49 -198 -294 -450 c -175 -180 -234 -255 -286 -357 c -58 -115 -80 -249 -50 -306 c 37 -72 104 -94 174 -58 c 39 20 57 54 67 126 c 16 118 63 185 316 445 c 105 109 207 223 236 267 c 183 273 142 548 -125 841 c -93 102 -134 124 -197 106 z"/>
<path transform="matrix(1,0,0,1,76.6,167.3)" d="M 936.5 3837.4 c -205 -40 -405 -152 -576 -324 c -182 -181 -290 -381 -352 -650 c -20 -90 -31 -734 -14 -895 c 31 -297 136 -547 296 -705 c 84 -83 170 -135 280 -172 c 73 -25 93 -27 245 -28 c 144 0 175 3 245 23 c 157 46 361 157 515 281 c 172 138 393 379 541 590 l 84 120 l 331 0 l 332 1 l 87 -121 c 241 -334 499 -587 750 -734 c 191 -113 323 -155 506 -162 c 145 -6 230 5 334 46 c 272 105 452 371 523 771 c 25 144 25 817 -1 944 c -40 195 -100 344 -204 501 c -162 243 -422 433 -689 501 l -97 24 l -1546 -1 c -850 -1 -1566 -5 -1590 -10 z m 3248 -296 c 222 -86 417 -261 525 -473 c 98 -191 116 -290 116 -624 c 0 -546 -58 -817 -211 -989 c -100 -113 -211 -160 -379 -160 c -241 -1 -474 116 -744 373 c -135 129 -309 344 -416 514 c -90 143 -42 130 -528 134 c -282 2 -429 0 -455 -8 c -29 -8 -42 -20 -58 -53 c -102 -200 -433 -583 -630 -730 c -307 -229 -574 -290 -798 -181 c -187 92 -303 307 -341 631 c -17 148 -8 756 13 844 c 23 94 71 221 112 294 c 118 211 338 387 558 445 c 69 18 127 19 1612 17 l 1540 -2 l 84 -32 z"/>
<path transform="matrix(1,0,0,1,117.6,177.2)" d="M 3593.2 3256 c -55 -37 -70 -78 -70 -190 l 0 -96 l -116 -4 l -116 -3 l -33 -36 c -43 -47 -48 -89 -43 -325 c 3 -154 6 -183 22 -210 c 32 -54 62 -64 180 -64 l 106 0 l 0 -95 c 0 -114 17 -165 65 -195 c 30 -18 49 -20 256 -20 c 198 0 228 2 258 18 c 56 30 71 71 71 189 l 0 103 l 105 0 c 121 0 154 12 182 63 c 16 28 18 60 18 247 c 0 192 -2 219 -19 254 c -31 62 -64 76 -183 76 l -103 0 l 0 95 c 0 105 -12 146 -54 185 c -28 25 -28 25 -260 28 c -228 3 -232 3 -266 -20 z m 310 -343 c 5 -121 15 -146 63 -175 c 26 -16 51 -20 135 -20 l 102 0 l 0 -60 l 0 -60 l -90 0 c -108 0 -161 -18 -190 -65 c -17 -27 -20 -49 -20 -139 l 0 -106 l -59 0 l -59 0 l -3 108 c -4 100 -6 112 -32 145 c -34 45 -74 57 -189 57 l -88 0 l 0 59 l 0 59 l 114 4 c 111 3 116 4 145 32 c 40 38 51 80 51 189 l 0 88 l 58 -3 l 57 -3 l 5 -110 z"/>
<path transform="matrix(1,0,0,1,37.9,178.9)" d="M 1140.4 3199.2 c -62 -14 -146 -47 -185 -73 c -164 -109 -260 -296 -246 -481 c 20 -280 245 -489 525 -489 c 149 0 267 49 371 153 c 290 290 154 789 -241 882 c -60 14 -179 18 -224 8 z m 225 -299 c 98 -53 146 -143 138 -257 c -9 -136 -103 -234 -241 -253 c -58 -8 -144 17 -198 59 c -130 99 -134 312 -8 420 c 85 73 209 85 309 31 z"/>
</g>
</svg>
