<?xml version="1.0" standalone="no"?>
<!DOCTYPE svg PUBLIC "-//W3C//DTD SVG 20010904//EN"
 "http://www.w3.org/TR/2001/REC-SVG-20010904/DTD/svg10.dtd">
<svg version="1.0" xmlns="http://www.w3.org/2000/svg"
 width="512.000000pt" height="512.000000pt" viewBox="0 0 512.000000 512.000000"
 preserveAspectRatio="xMidYMid meet">

<g transform="translate(0.000000,512.000000) scale(0.100000,-0.100000)"
fill="white" stroke="none">
<path d="M2875 4929 c-58 -16 -95 -67 -95 -130 0 -41 13 -63 77 -132 66 -72
122 -154 153 -227 19 -42 24 -72 24 -125 -2 -125 -49 -198 -294 -450 -175
-180 -234 -255 -286 -357 -58 -115 -80 -249 -50 -306 37 -72 104 -94 174 -58
39 20 57 54 67 126 16 118 63 185 316 445 105 109 207 223 236 267 183 273
142 548 -125 841 -93 102 -134 124 -197 106z"/>
<path d="M971 2989 c-205 -40 -405 -152 -576 -324 -182 -181 -290 -381 -352
-650 -20 -90 -31 -734 -14 -895 31 -297 136 -547 296 -705 84 -83 170 -135
280 -172 73 -25 93 -27 245 -28 144 0 175 3 245 23 157 46 361 157 515 281
172 138 393 379 541 590 l84 120 331 0 332 1 87 -121 c241 -334 499 -587 750
-734 191 -113 323 -155 506 -162 145 -6 230 5 334 46 272 105 452 371 523 771
25 144 25 817 -1 944 -40 195 -100 344 -204 501 -162 243 -422 433 -689 501
l-97 24 -1546 -1 c-850 -1 -1566 -5 -1590 -10z m3248 -296 c222 -86 417 -261
525 -473 98 -191 116 -290 116 -624 0 -546 -58 -817 -211 -989 -100 -113 -211
-160 -379 -160 -241 -1 -474 116 -744 373 -135 129 -309 344 -416 514 -90 143
-42 130 -528 134 -282 2 -429 0 -455 -8 -29 -8 -42 -20 -58 -53 -102 -200
-433 -583 -630 -730 -307 -229 -574 -290 -798 -181 -187 92 -303 307 -341 631
-17 148 -8 756 13 844 23 94 71 221 112 294 118 211 338 387 558 445 69 18
127 19 1612 17 l1540 -2 84 -32z"/>
<path d="M3670 2418 c-55 -37 -70 -78 -70 -190 l0 -96 -116 -4 -116 -3 -33
-36 c-43 -47 -48 -89 -43 -325 3 -154 6 -183 22 -210 32 -54 62 -64 180 -64
l106 0 0 -95 c0 -114 17 -165 65 -195 30 -18 49 -20 256 -20 198 0 228 2 258
18 56 30 71 71 71 189 l0 103 105 0 c121 0 154 12 182 63 16 28 18 60 18 247
0 192 -2 219 -19 254 -31 62 -64 76 -183 76 l-103 0 0 95 c0 105 -12 146 -54
185 -28 25 -28 25 -260 28 -228 3 -232 3 -266 -20z m310 -343 c5 -121 15 -146
63 -175 26 -16 51 -20 135 -20 l102 0 0 -60 0 -60 -90 0 c-108 0 -161 -18
-190 -65 -17 -27 -20 -49 -20 -139 l0 -106 -59 0 -59 0 -3 108 c-4 100 -6 112
-32 145 -34 45 -74 57 -189 57 l-88 0 0 59 0 59 114 4 c111 3 116 4 145 32 40
38 51 80 51 189 l0 88 58 -3 57 -3 5 -110z"/>
<path d="M1135 2363 c-62 -14 -146 -47 -185 -73 -164 -109 -260 -296 -246
-481 20 -280 245 -489 525 -489 149 0 267 49 371 153 290 290 154 789 -241
882 -60 14 -179 18 -224 8z m225 -299 c98 -53 146 -143 138 -257 -9 -136 -103
-234 -241 -253 -58 -8 -144 17 -198 59 -130 99 -134 312 -8 420 85 73 209 85
309 31z"/>
</g>
</svg>
